HIERARCHY
ROOT Hips
{
  OFFSET -32.4566 101.358 -11.8881
  CHANNELS 6 Xposition Yposition Zposition Zrotation Xrotation Yrotation
  JOINT Spine
  {
    OFFSET -0.000355721 21.3001 -0.016921
    CHANNELS 3 Zrotation Xrotation Yrotation
    JOINT LeftArm
    {
      OFFSET 13.5181 21.3012 0
      CHANNELS 3 Zrotation Xrotation Yrotation
      JOINT LeftForeArm
      {
        OFFSET 24.5783 0 0
        CHANNELS 3 Zrotation Xrotation Yrotation
        JOINT LeftHand
        {
          OFFSET 24.5783 0 0
          CHANNELS 3 Zrotation Xrotation Yrotation
          End Site
          {
            OFFSET 7.32568 1.52588e-05 0.0169305
          }
        }
      }
    }
    JOINT Head
    {
      OFFSET 0 27.4458 -0.00489235
      CHANNELS 3 Zrotation Xrotation Yrotation
      End Site
      {
        OFFSET 0 0 0
      }
    }
    JOINT RightArm
    {
      OFFSET -13.5174 21.3012 0
      CHANNELS 3 Zrotation Xrotation Yrotation
      JOINT RightForeArm
      {
        OFFSET -24.5783 0 0
        CHANNELS 3 Zrotation Xrotation Yrotation
        JOINT RightHand
        {
          OFFSET -24.5783 0 0
          CHANNELS 3 Zrotation Xrotation Yrotation
          End Site
          {
            OFFSET -7.32568 1.52588e-05 0.0169305
          }
        }
      }
    }
  }
  JOINT RightUpLeg
  {
    OFFSET -8.44614 -9.41038 0.835684
    CHANNELS 3 Zrotation Xrotation Yrotation
    JOINT RightLeg
    {
      OFFSET 0 -40.9639 0
      CHANNELS 3 Zrotation Xrotation Yrotation
      JOINT RightFoot
      {
        OFFSET 0 -40.9639 0
        CHANNELS 3 Zrotation Xrotation Yrotation
        End Site
        {
          OFFSET 0.50614 -9.67405 14.6709
        }
      }
    }
  }
  JOINT LeftUpLeg
  {
    OFFSET 8.44614 -9.41038 0.835684
    CHANNELS 3 Zrotation Xrotation Yrotation
    JOINT LeftLeg
    {
      OFFSET 0 -40.9639 0
      CHANNELS 3 Zrotation Xrotation Yrotation
      JOINT LeftFoot
      {
        OFFSET 0 -40.9639 0
        CHANNELS 3 Zrotation Xrotation Yrotation
        End Site
        {
          OFFSET -0.50614 -9.67405 14.6709
        }
      }
    }
  }
}
MOTION
Frames:	27
Frame Time:	0.0333333
25.233 99.3149 -18.0953 0.125129 1.37516 -83.4452 0.712706 -7.41103 0.749391 -74.8351 6.71361 14.7807 0.00240018 0.00680088 -33.2574 -4.64238 -1.21434 3.26293 1.90711 5.70123 -0.160443 77.9122 -7.7942 -19.8244 -0.00339977 0.00256822 21.5819 32.482 -23.1263 24.8887 -1.03006 8.27604 -4.81881 0.000753461 6.27904 0.0597471 5.07118 -23.7614 -2.85507 12.33 6.26167 8.29901 -3.21299e-05 3.25582 -0.0271891 -35.7323 -16.8715 8.21151 
24.8769 99.2459 -18.8876 0.44971 1.62551 -83.4534 0.678807 -7.18185 0.567407 -77.4416 7.1519 14.1296 0.00122895 0.00743827 -23.853 -4.91223 -7.65386 2.66135 0.66616 5.37795 0.968547 82.2925 -6.21493 -18.3953 -0.00322581 0.00263038 17.7487 30.6524 -24.4832 26.5644 -0.241966 7.80023 -4.04392 0.0131997 7.0222 0.0517999 4.42937 -24.5615 -3.59161 13.2889 3.99618 8.56104 7.67005e-07 7.19353 0.354195 -35.9258 -17.1676 7.92292 
24.5741 99.1912 -19.5625 0.910588 2.15292 -83.0927 0.9436 -6.7305 0.463921 -79.2313 8.75292 13.4842 0.00032245 0.00777617 -17.0335 -5.89889 -10.5106 3.25407 -0.338482 4.74292 1.6771 84.7414 -4.90053 -17.2191 -0.00313984 0.00265637 15.8855 19.8716 -23.0519 28.9278 0.863681 7.21855 -4.28331 0.00171169 7.26265 0.0406268 3.73612 -24.8195 -3.94197 14.6663 -3.15123 7.38199 -2.66903e-05 19.9044 0.11042 -34.7801 -20.8172 9.03523 
24.19 99.225 -20.0535 1.10609 2.26633 -82.6155 1.21637 -6.32187 0.570957 -80.9152 11.5141 13.9439 -0.000138131 0.00790261 -13.6682 -5.479 -9.54008 4.37126 -1.34329 4.24054 2.05898 85.1997 -3.09756 -16.9529 -0.00314316 0.00265542 15.9572 19.0461 -23.2805 29.2524 1.5147 7.63385 -4.58418 -9.74889e-05 6.46515 0.0294831 2.71073 -24.6584 -4.54236 14.8162 -10.0767 5.80208 7.78106e-06 32.071 -0.0184217 -32.6794 -22.5586 13.3073 
23.6473 99.331 -20.3064 1.56757 2.17363 -82.8898 1.74243 -6.27932 1.14043 -82.3937 13.0346 15.4433 -0.000135348 0.00790194 -13.6884 -4.69583 -7.89138 5.08319 -2.51655 3.66125 2.79846 84.4808 1.91812 -16.6352 -0.00317203 0.00264699 16.5811 23.5059 -24.1891 27.8255 1.62002 8.36361 -4.58649 0.000359851 4.66527 0.0170375 2.45885 -24.0684 -4.4081 14.0034 -16.8241 6.60601 2.93236e-05 42.7359 -0.089972 -24.7544 -22.2431 19.1952 
22.8785 99.3231 -20.416 2.36207 1.84626 -83.5349 2.19273 -6.4558 1.9642 -83.3447 12.5518 17.6066 0.000231399 0.00780349 -16.3638 -3.90167 -7.92416 4.85582 -3.70767 3.01868 3.60484 82.8132 8.03879 -16.1934 -0.00324032 0.0026257 18.065 28.9089 -24.5189 26.8285 1.19766 8.30182 -5.13866 -0.000127779 4.08536 0.014255 2.72642 -24.0908 -3.16656 13.5638 -22.055 8.63479 5.90056e-05 48.8918 -0.106159 -24.9367 -20.2772 14.4624 
21.9725 99.2086 -20.4273 3.14735 1.49951 -83.7325 2.45107 -6.47623 2.59583 -83.6279 11.4225 19.8587 0.000757849 0.0076292 -20.2713 -4.91076 -8.88663 4.05739 -4.60027 2.29059 4.01584 80.385 12.8635 -15.0024 -0.00329362 0.00260771 19.2321 31.7875 -25.4048 27.6664 0.748179 8.07948 -6.20892 -0.000592906 4.11934 0.015767 3.01521 -24.458 -1.92565 12.8697 -25.6184 10.0314 5.64818e-05 49.6027 -0.114681 -31.6532 -16.5347 4.76557 
20.955 99.0575 -20.3323 4.23098 0.97077 -83.9714 2.74669 -6.55435 3.32899 -83.7354 9.60828 22.1247 0.00135302 0.00738216 -24.8123 -5.84935 -10.4131 3.13032 -5.80462 1.25978 4.26374 76.8055 15.3839 -12.7214 -0.00332649 0.00259601 19.9559 30.3001 -25.6409 27.5614 0.00285512 7.67834 -7.09206 -0.000706398 4.09543 0.0181829 3.30252 -24.874 -0.732398 11.0605 -28.2336 10.9335 0.000137986 45.7552 -0.0928504 -36.4192 -13.24 -0.937475 
19.8739 98.9403 -20.1735 5.29104 0.584515 -84.3986 3.01832 -6.48449 4.05918 -83.3617 6.77314 24.3141 0.00193568 0.00708376 -29.4253 -6.77872 -11.978 2.36767 -6.85653 -0.176839 4.55043 72.8197 16.9673 -9.24367 -0.00336115 0.00258316 20.7229 27.7133 -24.769 26.6817 -0.599256 7.65637 -7.15064 -0.000111764 3.31651 0.0181127 3.57177 -24.9532 -0.204486 8.69602 -29.9228 11.298 -0.000216993 38.8957 -0.080243 -37.0185 -12.7268 -0.914522 
18.5871 98.7474 -19.9504 6.33221 0.448559 -84.9222 3.2474 -6.36396 4.76367 -82.3871 2.70231 26.2614 0.002452 0.00676661 -33.6951 -7.30574 -12.5606 1.80396 -7.62129 -1.91425 4.84951 68.8014 18.2056 -4.83301 -0.00341997 0.00256013 22.0333 26.4138 -24.934 26.8698 -0.964169 7.9174 -7.46554 0.000946286 2.2746 0.0129998 4.03632 -25.0799 0.705656 6.47847 -30.8057 10.8527 0.000102934 29.8922 -0.0643407 -35.9123 -12.642 2.18561 
16.9939 98.462 -19.7176 7.55887 0.36066 -85.8833 3.42784 -6.47397 5.58767 -80.8639 -3.40268 28.4562 0.00292184 0.00642857 -37.7736 -7.4716 -12.0157 2.02498 -8.03361 -3.5699 5.42005 64.7764 19.3475 0.457369 -0.00348852 0.00253131 23.5761 25.712 -25.4815 27.7821 -1.29202 8.32765 -8.1427 0.00198426 0.805515 0.00549228 4.86765 -24.9953 2.40659 4.76791 -31.3793 10.1259 4.51602e-05 20.274 -0.0556995 -33.247 -11.5157 5.98105 
14.9685 97.9879 -19.4523 8.49345 0.449907 -86.5358 3.55765 -6.57448 6.37123 -78.1533 -11.0645 30.4782 0.00321998 0.00618604 -40.4815 -8.81814 -10.3381 1.44552 -8.03606 -4.95788 5.68681 61.462 19.1703 5.79145 -0.00355877 0.00249948 25.1761 25.192 -25.8848 28.501 -1.3991 8.86321 -8.8144 0.00247282 0.393192 0.022123 5.3622 -25.638 3.75801 3.6054 -31.4755 9.75799 -5.43315e-05 11.9904 0.0017681 -33.3778 -12.3134 7.18784 
12.5274 97.3888 -19.1059 8.65539 0.54811 -87.0682 3.88748 -6.50961 7.3688 -73.8804 -19.8392 33.1299 0.00337524 0.00605008 -41.9354 -8.7896 -9.98042 -0.00310203 -8.11161 -5.59149 5.61451 58.9665 18.1773 9.85264 -0.0036585 0.00245013 27.4846 24.9962 -26.8386 29.3325 -1.44362 10.2767 -9.34964 0.00266645 0.563002 0.0382793 4.92944 -26.8011 4.54999 2.84857 -31.5504 9.67195 -0.00239563 7.53879 0.056987 -34.0631 -12.1487 8.1098 
9.63311 96.7396 -18.7546 8.01368 0.767532 -87.363 4.35183 -5.6625 8.79125 -66.8502 -29.7785 36.7267 0.0035164 0.00592023 -43.2867 -10.1225 -14.7163 -0.69731 -8.35925 -6.06291 4.90226 55.8558 18.5976 13.1597 -0.00378992 0.00237714 30.6037 26.2118 -30.5679 32.0883 -1.11642 13.2092 -10.0617 0.00319353 0.0265084 0.0272664 3.32723 -27.5095 4.76037 2.86294 -32.8015 9.83213 -0.0011965 10.7361 -0.0506784 -32.7034 -11.8684 7.63992 
6.12186 95.9749 -18.2766 6.84425 0.692489 -87.3433 4.67994 -5.2371 10.2943 -53.7366 -41.5508 44.9899 0.00403245 0.00538771 -48.5126 -12.6584 -19.0956 -0.121318 -8.72514 -5.20522 3.95323 50.9204 21.811 15.5624 -0.00394356 0.00227929 34.3832 30.3736 -33.9101 36.5789 -1.0851 16.8408 -10.5642 0.00296258 0.0926155 0.0269668 0.507105 -28.4102 4.02785 2.65066 -33.9576 9.30711 -0.000533674 18.8689 -0.163619 -30.4222 -11.889 6.74818 
2.23414 95.2242 -17.6985 5.34867 0.182302 -86.3638 4.77249 -4.49374 11.8167 -37.0127 -49.2725 55.3509 0.00498105 0.00407052 -59.967 -6.17295 -19.2578 2.67574 -9.3724 -3.71002 1.80125 44.1645 25.1375 16.0555 -0.00411382 0.00215292 38.783 37.4437 -36.9875 43.9189 -1.43539 19.5396 -11.3847 -0.000909662 3.32334 0.0534616 -4.04883 -29.9264 1.82788 1.13416 -34.9434 5.92442 0.000246975 27.1444 -0.222456 -27.3531 -11.4563 9.99942 
-1.6835 94.9795 -17.2112 2.73333 0.103653 -83.395 4.30465 -4.09254 12.5875 -20.5506 -52.4411 60.8959 0.00569874 0.00243875 -72.5507 0.321834 -25.0178 4.80857 -8.40312 -1.19034 -1.97221 40.7677 26.6586 11.3117 -0.00423982 0.0020453 42.2211 37.517 -36.9704 47.2487 -0.770083 19.8755 -10.6465 0.00363283 13.3991 0.0655429 -8.331 -29.2502 -4.24398 -0.710501 -34.3189 3.19961 -0.00837781 35.3814 -0.22606 -21.6099 -12.2822 7.77464 
-5.26783 95.2457 -16.9733 -1.34632 0.744499 -79.0868 2.83621 -4.63478 11.5183 -7.16702 -54.3133 58.286 0.0060253 0.000879551 -83.7915 7.78181 -34.4451 7.40648 -4.35114 2.72165 -5.77105 44.7286 25.1307 2.66796 -0.00418548 0.00209333 40.7166 24.4481 -31.5073 43.762 0.259364 14.6683 -10.9702 0.0512769 34.9645 0.00222529 -5.06489 -26.0714 -6.80074 -1.17942 -29.164 -0.0872587 2.86823e-05 37.9575 -0.22158 -21.804 -15.0083 4.93635 
-7.96558 96.1258 -16.7754 -6.19838 1.84526 -72.9055 1.40471 -5.23765 9.01016 -8.97845 -58.5651 36.787 0.00605131 -0.000593592 -94.1855 18.9063 -30.1757 10.2896 1.62201 10.0926 -11.3887 52.6083 21.5515 -10.0023 -0.0040774 0.00218168 37.8203 9.18123 -30.0894 45.2718 0.594981 6.99034 -14.5979 0.00581569 54.8393 -0.00627248 4.42684 -23.3943 -6.27227 0.0700368 -22.4244 -2.46443 1.0823e-05 37.2736 -0.194965 -21.9907 -15.1996 0.906959 
-9.21587 97.578 -16.5403 -11.1939 3.20839 -68 0.123705 -5.85674 6.29503 -28.8416 -57.6294 -1.80155 0.00592723 -0.0015329 -100.864 16.667 -29.4927 8.87672 9.75666 18.4136 -16.3262 61.5477 19.0498 -22.1673 -0.00389852 0.00230946 33.2585 5.99404 -29.9444 43.9818 -0.325784 -2.72204 -16.0846 0.0756743 63.3018 -0.00138772 5.29051 -21.9692 -7.37474 2.94387 -15.27 -4.46681 1.82616e-05 33.1183 -0.122263 -22.1429 -13.1316 -1.29678 
-8.87901 98.9381 -16.4486 -16.0926 4.02397 -65.4426 -2.26676 -5.07013 3.28533 -40.9865 -45.6974 -29.3537 0.00581227 -0.00204277 -104.547 20.7249 -27.7067 10.1187 18.9942 24.9699 -19.2621 71.7203 19.8178 -30.7598 -0.00363363 0.0024629 26.9045 12.9027 -29.1797 38.3871 -3.30827 -15.3643 -13.0057 0.000378285 61.4068 -0.00291634 6.7742 -16.7406 -7.89635 5.56982 -8.33796 -6.53666 -1.26846e-05 27.5197 -0.0350026 -21.574 -10.49 -0.297991 
-7.68481 99.6046 -16.5311 -20.469 4.83639 -63.2173 -5.01553 -2.8966 -0.205941 -40.8205 -31.4603 -43.1745 0.00579358 -0.00211351 -105.062 26.67 -24.8005 12.4702 27.3301 27.7864 -20.6898 82.6102 20.4636 -37.0427 -0.00337309 0.00257861 20.9879 19.6094 -25.982 35.5977 -8.14345 -26.7873 -11.7881 2.38394e-05 46.5686 -0.0425291 4.2435 -2.37705 -5.70619 8.2411 -3.9423 -8.1034 1.61497e-06 24.3326 0.0130825 -20.8689 -8.2932 0.305766 
-6.75657 99.756 -16.5366 -23.2011 6.1485 -61.8886 -6.41056 -1.28752 -2.71126 -38.6488 -20.4211 -51.7042 0.00583025 -0.00197219 -104.034 24.3634 -22.9448 12.9978 32.5207 27.4451 -20.8529 92.3259 19.4789 -42.5132 -0.00316651 0.00264863 16.4616 18.7146 -21.2882 36.3387 -15.6298 -35.4748 -16.2049 -8.55603e-05 21.7493 -0.0641328 9.9247 19.0707 2.08537 10.9234 -2.50133 -7.95021 5.80209e-06 23.69 0.0151282 -20.688 -7.04539 -0.590087 
-6.52776 99.6593 -16.5486 -24.6026 7.878 -62.535 -6.87508 -0.269253 -3.90732 -36.7098 -13.9416 -57.1213 0.00585133 -0.00188587 -103.408 25.1387 -21.9637 13.9979 34.048 26.2723 -18.2362 99.6349 16.8062 -47.1033 -0.00303431 0.00268416 13.6215 18.365 -20.1132 36.9353 -25.2216 -48.7511 -27.3682 -0.000588205 10.1754 0.0299228 3.58425 11.2185 13.1991 13.7381 -2.68445 -5.49248 4.83819e-06 25.0889 0.0361565 -21.2114 -6.84072 -2.66382 
-7.28749 99.2684 -16.6164 -26.8439 10.3831 -63.6587 -5.83295 1.08061 -4.42738 -35.884 -10.6496 -58.5275 0.00579076 -0.00212395 -105.139 26.0791 -20.9274 14.3374 33.495 25.906 -13.9845 105.908 14.1388 -51.6067 -0.00295034 0.00270313 11.8354 23.2693 -22.5461 37.582 -44.9576 -63.5874 -51.3759 -0.000728103 12.1763 -0.0128602 -0.0682123 0.125881 4.4211 17.8435 -3.02085 -3.45865 -2.35344e-05 29.4903 -0.0584181 -21.9648 -8.8949 -4.66058 
-8.72139 98.8456 -16.6738 -29.3793 11.2853 -61.6513 -4.81795 2.92752 -5.41802 -36.0948 -7.55357 -57.7678 0.00565859 -0.00256299 -108.369 27.5886 -18.0051 14.3697 32.7051 24.1559 -11.7533 112.149 11.1428 -56.7576 -0.0029849 0.00269565 12.569 28.6349 -25.6807 37.6588 -88.9485 -67.239 -93.0469 2.08056e-06 20.1498 -0.325167 -6.00677 -8.24385 -10.9296 21.0645 -3.03882 -2.75539 -2.16799e-05 33.5997 -0.148539 -22.4874 -10.3799 -8.27674 
-11.3578 98.7632 -16.6569 -29.7077 9.21583 -56.5475 -5.43566 3.06159 -6.74381 -37.7175 -1.1505 -57.0711 0.00557398 -0.002805 -110.175 28.6101 -16.1032 14.0343 32.5604 21.8398 -14.1737 117.485 6.98239 -60.5805 -0.00305551 0.00267893 14.0745 33.8052 -24.6271 34.5951 -127.031 -53.832 -123.097 -5.68311e-06 33.2081 -0.881948 -16.6101 -10.6914 -5.89423 21.6623 -4.04128 -1.78781 1.08161e-06 36.5371 -0.207867 -22.3513 -9.80981 -14.4327 
